<svg xmlns="http://www.w3.org/2000/svg" viewBox="0 0 224 140.5"><defs><style>.cls-1{fill:#666;}</style></defs><title>資產 2</title><g id="圖層_2" data-name="圖層 2"><g id="圖層_1-2" data-name="圖層 1"><g id="LOXI"><rect id="L-left" class="cls-1" y="3.5" width="20" height="136.5"/><rect id="L-bottom" class="cls-1" y="119.5" width="224" height="21"/><rect id="I-line" class="cls-1" x="204" y="19.5" width="20" height="120.5"/><rect id="I-point" class="cls-1" x="204" y="3.5" width="20" height="20"/><path id="O" class="cls-1" d="M112,140a70,70,0,1,1,70-70A70.08,70.08,0,0,1,112,140Zm0-120a50,50,0,1,0,50,50A50.06,50.06,0,0,0,112,20Z"/><g id="X"><rect class="cls-1" x="110.54" y="34.08" width="58.25" height="20" transform="translate(9.73 111.67) rotate(-45)"/><rect class="cls-1" x="55.21" y="89.42" width="58.25" height="20" transform="translate(-45.6 88.75) rotate(-45)"/><rect class="cls-1" x="74.33" y="14.96" width="20" height="58.25" transform="translate(-6.47 72.55) rotate(-45)"/><rect class="cls-1" x="129.67" y="70.29" width="20" height="58.25" transform="translate(-29.39 127.88) rotate(-45)"/><rect id="X-center" class="cls-1" x="102" y="61.75" width="20" height="20" transform="translate(-17.93 100.21) rotate(-45)"/></g></g></g></g></svg>